<svg width="93" height="93" viewBox="0 0 93 93" fill="none" xmlns="http://www.w3.org/2000/svg">
<path d="M5.8125 35.2625C5.8125 24.954 5.8125 19.7998 7.81866 15.8625C9.58333 12.3991 12.3991 9.58333 15.8625 7.81866C19.7998 5.8125 24.954 5.8125 35.2625 5.8125H57.7375C68.046 5.8125 73.2002 5.8125 77.1375 7.81866C80.6009 9.58333 83.4167 12.3991 85.1813 15.8625C87.1875 19.7998 87.1875 24.954 87.1875 35.2625V57.7375C87.1875 68.046 87.1875 73.2002 85.1813 77.1375C83.4167 80.6009 80.6009 83.4167 77.1375 85.1813C73.2002 87.1875 68.046 87.1875 57.7375 87.1875H35.2625C24.954 87.1875 19.7998 87.1875 15.8625 85.1813C12.3991 83.4167 9.58333 80.6009 7.81866 77.1375C5.8125 73.2002 5.8125 68.046 5.8125 57.7375V35.2625Z" fill="white"/>
<path d="M5.8125 35.2625C5.8125 24.954 5.8125 19.7998 7.81866 15.8625C9.58333 12.3991 12.3991 9.58333 15.8625 7.81866C19.7998 5.8125 24.954 5.8125 35.2625 5.8125H57.7375C68.046 5.8125 73.2002 5.8125 77.1375 7.81866C80.6009 9.58333 83.4167 12.3991 85.1813 15.8625C87.1875 19.7998 87.1875 24.954 87.1875 35.2625V57.7375C87.1875 68.046 87.1875 73.2002 85.1813 77.1375C83.4167 80.6009 80.6009 83.4167 77.1375 85.1813C73.2002 87.1875 68.046 87.1875 57.7375 87.1875H35.2625C24.954 87.1875 19.7998 87.1875 15.8625 85.1813C12.3991 83.4167 9.58333 80.6009 7.81866 77.1375C5.8125 73.2002 5.8125 68.046 5.8125 57.7375V35.2625Z" fill="url(#paint0_radial_36_309)"/>
<path d="M5.8125 35.2625C5.8125 24.954 5.8125 19.7998 7.81866 15.8625C9.58333 12.3991 12.3991 9.58333 15.8625 7.81866C19.7998 5.8125 24.954 5.8125 35.2625 5.8125H57.7375C68.046 5.8125 73.2002 5.8125 77.1375 7.81866C80.6009 9.58333 83.4167 12.3991 85.1813 15.8625C87.1875 19.7998 87.1875 24.954 87.1875 35.2625V57.7375C87.1875 68.046 87.1875 73.2002 85.1813 77.1375C83.4167 80.6009 80.6009 83.4167 77.1375 85.1813C73.2002 87.1875 68.046 87.1875 57.7375 87.1875H35.2625C24.954 87.1875 19.7998 87.1875 15.8625 85.1813C12.3991 83.4167 9.58333 80.6009 7.81866 77.1375C5.8125 73.2002 5.8125 68.046 5.8125 57.7375V35.2625Z" fill="url(#paint1_radial_36_309)"/>
<path d="M5.8125 35.2625C5.8125 24.954 5.8125 19.7998 7.81866 15.8625C9.58333 12.3991 12.3991 9.58333 15.8625 7.81866C19.7998 5.8125 24.954 5.8125 35.2625 5.8125H57.7375C68.046 5.8125 73.2002 5.8125 77.1375 7.81866C80.6009 9.58333 83.4167 12.3991 85.1813 15.8625C87.1875 19.7998 87.1875 24.954 87.1875 35.2625V57.7375C87.1875 68.046 87.1875 73.2002 85.1813 77.1375C83.4167 80.6009 80.6009 83.4167 77.1375 85.1813C73.2002 87.1875 68.046 87.1875 57.7375 87.1875H35.2625C24.954 87.1875 19.7998 87.1875 15.8625 85.1813C12.3991 83.4167 9.58333 80.6009 7.81866 77.1375C5.8125 73.2002 5.8125 68.046 5.8125 57.7375V35.2625Z" fill="url(#paint2_radial_36_309)"/>
<path d="M5.8125 35.2625C5.8125 24.954 5.8125 19.7998 7.81866 15.8625C9.58333 12.3991 12.3991 9.58333 15.8625 7.81866C19.7998 5.8125 24.954 5.8125 35.2625 5.8125H57.7375C68.046 5.8125 73.2002 5.8125 77.1375 7.81866C80.6009 9.58333 83.4167 12.3991 85.1813 15.8625C87.1875 19.7998 87.1875 24.954 87.1875 35.2625V57.7375C87.1875 68.046 87.1875 73.2002 85.1813 77.1375C83.4167 80.6009 80.6009 83.4167 77.1375 85.1813C73.2002 87.1875 68.046 87.1875 57.7375 87.1875H35.2625C24.954 87.1875 19.7998 87.1875 15.8625 85.1813C12.3991 83.4167 9.58333 80.6009 7.81866 77.1375C5.8125 73.2002 5.8125 68.046 5.8125 57.7375V35.2625Z" fill="url(#paint3_radial_36_309)"/>
<path d="M5.8125 35.2625C5.8125 24.954 5.8125 19.7998 7.81866 15.8625C9.58333 12.3991 12.3991 9.58333 15.8625 7.81866C19.7998 5.8125 24.954 5.8125 35.2625 5.8125H57.7375C68.046 5.8125 73.2002 5.8125 77.1375 7.81866C80.6009 9.58333 83.4167 12.3991 85.1813 15.8625C87.1875 19.7998 87.1875 24.954 87.1875 35.2625V57.7375C87.1875 68.046 87.1875 73.2002 85.1813 77.1375C83.4167 80.6009 80.6009 83.4167 77.1375 85.1813C73.2002 87.1875 68.046 87.1875 57.7375 87.1875H35.2625C24.954 87.1875 19.7998 87.1875 15.8625 85.1813C12.3991 83.4167 9.58333 80.6009 7.81866 77.1375C5.8125 73.2002 5.8125 68.046 5.8125 57.7375V35.2625Z" fill="url(#paint4_radial_36_309)"/>
<path d="M5.8125 35.2625C5.8125 24.954 5.8125 19.7998 7.81866 15.8625C9.58333 12.3991 12.3991 9.58333 15.8625 7.81866C19.7998 5.8125 24.954 5.8125 35.2625 5.8125H57.7375C68.046 5.8125 73.2002 5.8125 77.1375 7.81866C80.6009 9.58333 83.4167 12.3991 85.1813 15.8625C87.1875 19.7998 87.1875 24.954 87.1875 35.2625V57.7375C87.1875 68.046 87.1875 73.2002 85.1813 77.1375C83.4167 80.6009 80.6009 83.4167 77.1375 85.1813C73.2002 87.1875 68.046 87.1875 57.7375 87.1875H35.2625C24.954 87.1875 19.7998 87.1875 15.8625 85.1813C12.3991 83.4167 9.58333 80.6009 7.81866 77.1375C5.8125 73.2002 5.8125 68.046 5.8125 57.7375V35.2625Z" fill="url(#paint5_radial_36_309)"/>
<path d="M5.8125 35.2625C5.8125 24.954 5.8125 19.7998 7.81866 15.8625C9.58333 12.3991 12.3991 9.58333 15.8625 7.81866C19.7998 5.8125 24.954 5.8125 35.2625 5.8125H57.7375C68.046 5.8125 73.2002 5.8125 77.1375 7.81866C80.6009 9.58333 83.4167 12.3991 85.1813 15.8625C87.1875 19.7998 87.1875 24.954 87.1875 35.2625V57.7375C87.1875 68.046 87.1875 73.2002 85.1813 77.1375C83.4167 80.6009 80.6009 83.4167 77.1375 85.1813C73.2002 87.1875 68.046 87.1875 57.7375 87.1875H35.2625C24.954 87.1875 19.7998 87.1875 15.8625 85.1813C12.3991 83.4167 9.58333 80.6009 7.81866 77.1375C5.8125 73.2002 5.8125 68.046 5.8125 57.7375V35.2625Z" fill="url(#paint6_radial_36_309)"/>
<path d="M71.116 30.3294C66.8099 25.5652 60.7407 22.8874 54.4341 22.9222C48.2632 22.9222 41.9905 25.6347 37.9557 30.0164C37.2097 29.9469 36.4638 29.8773 35.7518 29.8773C23.6472 29.8773 16.154 40.31 16.154 49.9777C16.1879 55.194 18.1544 60.2017 21.6468 64.027C25.3086 68.0262 30.3946 70.2866 35.7518 70.2866H54.4341C67.1151 70.2866 77.4226 59.6105 77.4226 46.5349C77.3547 40.5187 75.1169 34.7459 71.116 30.3294ZM35.3788 66.8786C26.3936 66.8786 19.1377 59.4019 19.1377 50.1863C19.1377 41.0403 26.3597 33.5983 35.311 33.5288C39.278 33.5288 43.4485 34.8503 46.0932 37.7366L52.9083 44.9004C54.0272 46.0828 53.9933 47.9607 52.8405 49.1083C51.6877 50.2559 49.8568 50.2211 48.7379 49.0387L42.0922 42.014C37.7522 38.1887 31.2083 38.6756 27.4786 43.1269C25.8511 45.0395 24.9696 47.5086 24.9696 50.0472C24.9696 55.8895 29.8182 60.8277 35.5483 60.8277H36.8707C38.7694 63.5402 44.0927 66.8786 44.0927 66.8786H35.3788ZM68.6747 60.8972C65.0468 64.7921 60.0286 66.9829 54.7732 67.0177C49.789 67.0177 44.703 64.7225 40.8038 60.7581L31.9204 51.5773C30.8015 50.395 30.8354 48.5171 31.9543 47.3695C32.4968 46.8131 33.2088 46.5349 33.9886 46.5349C34.7685 46.5349 35.5144 46.8479 36.0569 47.439L44.9065 56.5155C47.7207 59.4019 51.3147 61.0363 54.7732 61.0363C58.469 61.0363 61.9952 59.4714 64.5382 56.6894C67.149 53.9421 68.6069 50.2559 68.6069 46.4305C68.6069 38.5713 62.3682 32.2073 54.7054 32.1725C51.7894 32.1725 49.3821 32.7637 47.0086 34.4677C45.665 33.0897 42.7704 31.7205 41.448 31.4422C45.1099 27.9299 49.6872 26.2259 54.7054 26.2259C65.5893 26.2259 74.371 35.2676 74.4049 46.4305C74.4049 51.8208 72.3705 57.0371 68.6747 60.8972Z" fill="white"/>
<defs>
<radialGradient id="paint0_radial_36_309" cx="0" cy="0" r="1" gradientTransform="matrix(33.2281 35.4712 -35.4712 34.954 73.4555 75.3638)" gradientUnits="userSpaceOnUse">
<stop stop-color="#68E048"/>
<stop offset="1" stop-color="#5CE049" stop-opacity="0"/>
</radialGradient>
<radialGradient id="paint1_radial_36_309" cx="0" cy="0" r="1" gradientTransform="matrix(-36.4492 33.5585 -33.5585 -38.3424 18.6969 75.016)" gradientUnits="userSpaceOnUse">
<stop stop-color="#308CFE"/>
<stop offset="1" stop-color="#2F8BFF" stop-opacity="0"/>
</radialGradient>
<radialGradient id="paint2_radial_36_309" cx="0" cy="0" r="1" gradientTransform="matrix(28.8203 3.9992 -3.9992 30.3172 71.9297 51.3686)" gradientUnits="userSpaceOnUse">
<stop stop-color="#FDD511"/>
<stop offset="1" stop-color="#FDD20D" stop-opacity="0"/>
</radialGradient>
<radialGradient id="paint3_radial_36_309" cx="0" cy="0" r="1" gradientTransform="matrix(-25.9383 -34.254 34.254 -27.2855 19.7141 35.1979)" gradientUnits="userSpaceOnUse">
<stop stop-color="#F928C2"/>
<stop offset="1" stop-color="#F922BC" stop-opacity="0"/>
</radialGradient>
<radialGradient id="paint4_radial_36_309" cx="0" cy="0" r="1" gradientTransform="matrix(19.3266 -38.601 38.601 20.3304 51.925 19.375)" gradientUnits="userSpaceOnUse">
<stop stop-color="#F90700"/>
<stop offset="1" stop-color="#F90700" stop-opacity="0"/>
</radialGradient>
<radialGradient id="paint5_radial_36_309" cx="0" cy="0" r="1" gradientTransform="matrix(10.6805 -23.6474 23.6474 11.2352 82.7797 17.6362)" gradientUnits="userSpaceOnUse">
<stop stop-color="#FB4200"/>
<stop offset="1" stop-color="#FB4300" stop-opacity="0"/>
</radialGradient>
<radialGradient id="paint6_radial_36_309" cx="0" cy="0" r="1" gradientTransform="matrix(-15.9359 -16.6923 16.6923 -16.7636 14.2891 15.7236)" gradientUnits="userSpaceOnUse">
<stop stop-color="#FE0D88"/>
<stop offset="1" stop-color="#FE0D88" stop-opacity="0"/>
</radialGradient>
</defs>
</svg>
