<svg width="93" height="93" viewBox="0 0 93 93" fill="none" xmlns="http://www.w3.org/2000/svg">
<path fill-rule="evenodd" clip-rule="evenodd" d="M46.5 46.5C46.5 40.0797 51.7047 34.875 58.125 34.875C64.5453 34.875 69.75 40.0797 69.75 46.5C69.75 52.9203 64.5453 58.125 58.125 58.125C51.7047 58.125 46.5 52.9203 46.5 46.5Z" fill="#1ABCFE"/>
<path fill-rule="evenodd" clip-rule="evenodd" d="M23.25 69.75C23.25 63.3297 28.4547 58.125 34.875 58.125H46.5V69.75C46.5 76.1703 41.2953 81.375 34.875 81.375C28.4547 81.375 23.25 76.1703 23.25 69.75Z" fill="#0ACF83"/>
<path fill-rule="evenodd" clip-rule="evenodd" d="M46.5 11.625V34.875H58.125C64.5453 34.875 69.75 29.6703 69.75 23.25C69.75 16.8297 64.5453 11.625 58.125 11.625H46.5Z" fill="#FF7262"/>
<path fill-rule="evenodd" clip-rule="evenodd" d="M23.25 23.25C23.25 29.6703 28.4547 34.875 34.875 34.875H46.5V11.625H34.875C28.4547 11.625 23.25 16.8297 23.25 23.25Z" fill="#F24E1E"/>
<path fill-rule="evenodd" clip-rule="evenodd" d="M23.25 46.5C23.25 52.9203 28.4547 58.125 34.875 58.125H46.5V34.875H34.875C28.4547 34.875 23.25 40.0797 23.25 46.5Z" fill="#A259FF"/>
</svg>
