<svg width="93" height="93" viewBox="0 0 93 93" fill="none" xmlns="http://www.w3.org/2000/svg">
<g clip-path="url(#clip0_45_354)">
<path fill-rule="evenodd" clip-rule="evenodd" d="M46.3615 0C20.7248 0 0 21.3125 0 47.679C0 68.7551 13.2791 86.5956 31.7007 92.9099C34.0038 93.3846 34.8475 91.884 34.8475 90.6217C34.8475 89.5164 34.7716 85.7276 34.7716 81.7799C21.8749 84.6222 19.1893 76.0963 19.1893 76.0963C17.1167 70.5705 14.0458 69.1503 14.0458 69.1503C9.82479 66.2296 14.3533 66.2296 14.3533 66.2296C19.0356 66.5454 21.4925 71.1237 21.4925 71.1237C25.6367 78.3854 32.3147 76.3336 35.0012 75.0704C35.3846 71.9917 36.6135 69.8604 37.9184 68.6766C27.6324 67.5713 16.8102 63.4667 16.8102 45.1525C16.8102 39.9425 18.6512 35.68 21.5684 32.365C21.1082 31.1812 19.4958 26.2861 22.0296 19.7344C22.0296 19.7344 25.9442 18.4712 34.7706 24.6285C38.5495 23.5849 42.4467 23.0539 46.3615 23.0495C50.276 23.0495 54.2665 23.6026 57.9513 24.6285C66.7787 18.4712 70.6933 19.7344 70.6933 19.7344C73.2271 26.2861 71.6138 31.1812 71.1535 32.365C74.1476 35.68 75.9127 39.9425 75.9127 45.1525C75.9127 63.4667 65.0905 67.4918 54.7277 68.6766C56.4168 70.1762 57.8745 73.0176 57.8745 77.5174C57.8745 83.9112 57.7985 89.0427 57.7985 90.6208C57.7985 91.884 58.6431 93.3846 60.9454 92.9109C79.367 86.5946 92.646 68.7551 92.646 47.679C92.7219 21.3125 71.9213 0 46.3615 0Z" fill="#24292F"/>
</g>
<defs>
<clipPath id="clip0_45_354">
<rect width="93" height="93" fill="white"/>
</clipPath>
</defs>
</svg>
