<svg width="84" height="84" viewBox="0 0 84 84" fill="none" xmlns="http://www.w3.org/2000/svg">
<path d="M19.1426 14.4072C25.2446 11.6181 33.2898 12.4639 40.749 20.2148L41.8301 21.3379L42.9111 20.2148C50.3702 12.4641 58.4154 11.6197 64.5176 14.4102C70.7145 17.244 75.1885 23.9397 75.1885 31.8525C75.1885 39.8585 71.8969 46.0148 67.2793 51.2139C62.6106 56.4704 56.71 60.6276 51.4922 64.7373L51.4902 64.7393C49.668 66.1788 47.9724 67.4972 46.3184 68.4639C44.6638 69.4309 43.1924 69.959 41.8301 69.959C40.4681 69.959 38.9969 69.4302 37.3418 68.4629C35.6873 67.4959 33.992 66.1779 32.1689 64.7412H32.168C26.9514 60.6276 21.0511 56.4701 16.3818 51.2129C11.7638 46.0133 8.47168 39.8562 8.47168 31.8486C8.47186 23.9342 12.946 17.2397 19.1426 14.4072Z" stroke="#FF7262" stroke-width="3"/>
</svg>
