<svg width="84" height="84" viewBox="0 0 84 84" fill="none" xmlns="http://www.w3.org/2000/svg">
<path d="M17.9277 48.8007C15.3122 44.5174 13.9331 39.5938 13.9434 34.575C13.9434 19.328 26.4297 6.9707 41.8301 6.9707C57.2305 6.9707 69.7168 19.328 69.7168 34.575C69.727 39.5938 68.348 44.5174 65.7324 48.8007" stroke="#FF7262" stroke-width="3" stroke-linecap="round"/>
<path d="M52.288 66.229L51.8348 68.4843C51.3468 70.9488 51.0993 72.1793 50.5451 73.1553C49.691 74.6597 48.3082 75.7928 46.6653 76.3344C45.6021 76.6865 44.3403 76.6865 41.8305 76.6865C39.3207 76.6865 38.0588 76.6865 36.9956 76.3379C35.3522 75.7954 33.9693 74.661 33.1159 73.1553C32.5616 72.1793 32.3142 70.9488 31.8261 68.4843L31.373 66.229M25.7364 59.5989C25.4157 58.6368 25.2553 58.1523 25.2728 57.7619C25.2925 57.3582 25.4287 56.9689 25.6651 56.641C25.9014 56.3131 26.2276 56.0608 26.6044 55.9144C26.9669 55.7715 27.4758 55.7715 28.4867 55.7715H55.1742C56.1886 55.7715 56.6941 55.7715 57.0566 55.9109C57.4338 56.0575 57.7605 56.3104 57.9968 56.639C58.2332 56.9675 58.3691 57.3576 58.3882 57.7619C58.4056 58.1523 58.2453 58.6334 57.9246 59.5989C57.332 61.3802 57.0357 62.2726 56.579 62.9941C55.6239 64.5021 54.1268 65.5863 52.396 66.0233C51.5664 66.229 50.6322 66.229 48.7603 66.229H34.9006C33.0287 66.229 32.0911 66.229 31.2649 66.0198C29.5348 65.5837 28.0377 64.5008 27.0819 62.9941C26.6253 62.2726 26.329 61.3802 25.7364 59.5989Z" stroke="#FF7262" stroke-width="3"/>
<path d="M41.8301 55.7729V38.3438" stroke="#FF7262" stroke-width="3" stroke-linecap="round" stroke-linejoin="round"/>
</svg>
