<svg width="84" height="84" viewBox="0 0 84 84" fill="none" xmlns="http://www.w3.org/2000/svg">
<path d="M17.9276 48.8017C15.312 44.5184 13.933 39.5947 13.9433 34.576C13.9433 19.329 26.4295 6.97168 41.83 6.97168C57.2304 6.97168 69.7166 19.329 69.7166 34.576C69.7269 39.5947 68.3479 44.5184 65.7323 48.8017" stroke="#EA5E02" stroke-width="3" stroke-linecap="round"/>
<path d="M52.2875 66.2309L51.8343 68.4863C51.3463 70.9508 51.0988 72.1813 50.5446 73.1573C49.6905 74.6616 48.3077 75.7947 46.6648 76.3364C45.6017 76.6884 44.3398 76.6884 41.83 76.6884C39.3202 76.6884 38.0583 76.6884 36.9951 76.3399C35.3517 75.7973 33.9688 74.6629 33.1154 73.1573C32.5612 72.1813 32.3137 70.9508 31.8256 68.4863L31.3725 66.2309M25.7359 59.6009C25.4152 58.6388 25.2549 58.1543 25.2723 57.7638C25.292 57.3602 25.4283 56.9708 25.6646 56.643C25.9009 56.3151 26.2271 56.0627 26.6039 55.9164C26.9664 55.7734 27.4753 55.7734 28.4862 55.7734H55.1738C56.1881 55.7734 56.6936 55.7734 57.0561 55.9129C57.4334 56.0595 57.76 56.3124 57.9963 56.6409C58.2327 56.9695 58.3686 57.3596 58.3877 57.7638C58.4051 58.1543 58.2448 58.6353 57.9241 59.6009C57.3315 61.3821 57.0352 62.2745 56.5786 62.9961C55.6234 64.5041 54.1263 65.5883 52.3955 66.0253C51.5659 66.2309 50.6317 66.2309 48.7598 66.2309H34.9002C33.0283 66.2309 32.0906 66.2309 31.2644 66.0218C29.5343 65.5857 28.0372 64.5028 27.0814 62.9961C26.6248 62.2745 26.3285 61.3821 25.7359 59.6009Z" stroke="#EA5E02" stroke-width="3"/>
<path d="M41.83 55.7729V38.3438" stroke="#EA5E02" stroke-width="3" stroke-linecap="round" stroke-linejoin="round"/>
</svg>
